<?xml version="1.0" encoding="UTF-8"?>
<!DOCTYPE svg PUBLIC "-//W3C//DTD SVG 1.1//EN" "http://www.w3.org/Graphics/SVG/1.1/DTD/svg11.dtd">
<svg xmlns="http://www.w3.org/2000/svg" version="1.1" width="1024px" height="1024px" style="shape-rendering:geometricPrecision; text-rendering:geometricPrecision; image-rendering:optimizeQuality; fill-rule:evenodd; clip-rule:evenodd" xmlns:xlink="http://www.w3.org/1999/xlink">
<g><path style="opacity:0.999" fill="#000000" d="M 159.5,-0.5 C 394.167,-0.5 628.833,-0.5 863.5,-0.5C 939.185,11.3459 990.018,53.3459 1016,125.5C 1019.1,136.838 1021.6,148.171 1023.5,159.5C 1023.5,394.167 1023.5,628.833 1023.5,863.5C 1011.65,939.185 969.654,990.018 897.5,1016C 886.162,1019.1 874.829,1021.6 863.5,1023.5C 628.833,1023.5 394.167,1023.5 159.5,1023.5C 83.8153,1011.65 32.9819,969.654 7,897.5C 3.90175,886.162 1.40175,874.829 -0.5,863.5C -0.5,628.833 -0.5,394.167 -0.5,159.5C 11.3459,83.8153 53.3459,32.9819 125.5,7C 136.838,3.90175 148.171,1.40175 159.5,-0.5 Z"/></g>
<g><path style="opacity:1" fill="#fafafa" d="M 477.5,329.5 C 511.665,325.796 542.998,333.296 571.5,352C 584.921,362.687 595.088,375.854 602,391.5C 611.162,414.478 617.995,438.144 622.5,462.5C 647.091,456.715 666.258,464.382 680,485.5C 690.907,505.349 696.241,526.683 696,549.5C 696.667,577.833 696.667,606.167 696,634.5C 694.767,654.486 693.934,674.486 693.5,694.5C 583.166,694.668 472.833,695.001 362.5,695.5C 355.466,643.756 351.966,591.756 352,539.5C 331.549,523.121 323.215,501.788 327,475.5C 332.669,451.83 346.003,433.83 367,421.5C 374.525,380.963 397.692,353.463 436.5,339C 450.06,334.691 463.727,331.524 477.5,329.5 Z"/></g>
<g><path style="opacity:1" fill="#000000" d="M 369.5,581.5 C 369.172,570.986 369.506,560.653 370.5,550.5C 410.107,566.364 450.774,569.531 492.5,560C 523.786,551.965 540.953,531.798 544,499.5C 544.904,483.46 544.57,467.46 543,451.5C 536.46,433.961 524.293,422.127 506.5,416C 466.85,403.319 426.85,402.152 386.5,412.5C 390.353,396.306 398.686,382.806 411.5,372C 446.288,347.514 484.622,339.848 526.5,349C 553.981,355.463 573.814,371.296 586,396.5C 601.743,435.951 610.077,476.951 611,519.5C 612.693,572.605 611.193,625.605 606.5,678.5C 530.167,678.5 453.833,678.5 377.5,678.5C 372.388,646.379 369.721,614.045 369.5,581.5 Z"/></g>
<g><path style="opacity:1" fill="#010101" d="M 425.5,422.5 C 446.055,421.38 466.388,422.88 486.5,427C 500.261,429.629 512.094,435.796 522,445.5C 524.194,448.554 525.861,451.888 527,455.5C 527.667,471.167 527.667,486.833 527,502.5C 524.624,522.203 514.124,535.37 495.5,542C 472.912,548.231 449.912,550.231 426.5,548C 403.461,545.987 382.127,538.987 362.5,527C 348.625,516.579 341.959,502.579 342.5,485C 344.438,465.118 353.771,449.784 370.5,439C 387.413,428.36 405.747,422.86 425.5,422.5 Z"/></g>
<g><path style="opacity:1" fill="#020202" d="M 631.5,476.5 C 646.799,475.314 658.299,481.314 666,494.5C 674.151,508.717 678.484,524.05 679,540.5C 681.1,586.526 680.6,632.526 677.5,678.5C 659.5,678.5 641.5,678.5 623.5,678.5C 626.217,639.88 627.883,601.214 628.5,562.5C 628.738,534.412 627.405,506.412 624.5,478.5C 627.067,478.279 629.401,477.612 631.5,476.5 Z"/></g>
<g><path style="opacity:1" fill="#bdbdbd" d="M 370.5,550.5 C 369.506,560.653 369.172,570.986 369.5,581.5C 368.177,570.993 368.177,560.326 369.5,549.5C 370.107,549.624 370.44,549.957 370.5,550.5 Z"/></g>
</svg>
